<svg version="1.2" xmlns="http://www.w3.org/2000/svg" viewBox="0 0 869 852" width="869" height="852">
	<title>a-ai</title>
	<style>
		.s0 { fill: #ff7626 } 
		.s1 { opacity: .7;fill: #ffffff } 
		.s2 { opacity: .5;fill: #ffffff } 
		.s3 { fill: #ffffff } 
		.s4 { fill: none;stroke: #263238;stroke-linecap: round;stroke-linejoin: round;stroke-width: 2 } 
		.s5 { fill: #263238 } 
		.s6 { fill: #ff944d;stroke: #263238;stroke-miterlimit:10;stroke-width: 2 } 
		.s7 { fill: #92e3a9;stroke: #263238;stroke-miterlimit:10;stroke-width: 2 } 
		.s8 { fill: none;stroke: #92e3a9;stroke-linecap: round;stroke-linejoin: round;stroke-width: 2 } 
		.s9 { fill: #92e3a9 } 
		.s10 { fill: none;stroke: #263238;stroke-linecap: round;stroke-linejoin: round;stroke-width: 2.4 } 
		.s11 { opacity: .4;fill: #ffffff } 
		.s12 { fill: none;stroke: #263238;stroke-miterlimit:10;stroke-width: 2 } 
		.s13 { opacity: .3;fill: #000000 } 
		.s14 { opacity: .1;fill: #000000 } 
		.s15 { fill: #ffffff;stroke: #263238;stroke-linecap: round;stroke-linejoin: round;stroke-width: 2 } 
		.s16 { opacity: .8;fill: none;stroke: #ffffff;stroke-linecap: round;stroke-linejoin: round;stroke-width: 2 } 
		.s17 { fill: none;stroke: #ffffff;stroke-linecap: round;stroke-linejoin: round;stroke-width: 2 } 
	</style>
	<g id="Background Simple">
		<g id="&lt;Group&gt;">
			<path id="&lt;Path&gt;" class="s0" d="m592 44.7c-43.6 24.9-74.4 66.9-111.7 100.6-46.1 41.6-103.2 70.9-163.8 84-50 10.8-102.3 11-150.5 27.9-93.9 33-158.3 130.9-160.1 230.4-1.7 99.5 55 195.9 138.3 250.6 28.2 18.5 59.3 32.7 91.9 41.9 61.2 17.2 126.1 16.4 189.3 9.8 109.3-11.3 223.8-73.4 292.6-160.8 30.7-39 56.7-81.8 77.3-126.9 33.9-74.2 53.7-154.9 57.1-236.3 2.9-70.1-0.1-147.6-55.6-198.7-55.3-50.8-139.7-59.8-204.8-22.5z"/>
			<path id="&lt;Path&gt;" class="s1" d="m592 44.7c-43.6 24.9-74.4 66.9-111.7 100.6-46.1 41.6-103.2 70.9-163.8 84-50 10.8-102.3 11-150.5 27.9-93.9 33-158.3 130.9-160.1 230.4-1.7 99.5 55 195.9 138.3 250.6 28.2 18.5 59.3 32.7 91.9 41.9 61.2 17.2 126.1 16.4 189.3 9.8 109.3-11.3 223.8-73.4 292.6-160.8 30.7-39 56.7-81.8 77.3-126.9 33.9-74.2 53.7-154.9 57.1-236.3 2.9-70.1-0.1-147.6-55.6-198.7-55.3-50.8-139.7-59.8-204.8-22.5z"/>
		</g>
	</g>
	<g id="Shadow">
		<g id="&lt;Group&gt;">
			<path id="&lt;Path&gt;" class="s0" d="m835.9 749.5c0 53.3-160.6 96.6-358.7 96.6-198.1 0-358.7-43.3-358.7-96.6 0-53.4 160.6-96.6 358.7-96.6 198.1 0 358.7 43.2 358.7 96.6z"/>
			<path id="&lt;Path&gt;" class="s2" d="m835.9 749.5c0 53.3-160.6 96.6-358.7 96.6-198.1 0-358.7-43.3-358.7-96.6 0-53.4 160.6-96.6 358.7-96.6 198.1 0 358.7 43.2 358.7 96.6z"/>
		</g>
	</g>
	
	<g id="Floor">
		<g id="&lt;Group&gt;">
			<g id="&lt;Group&gt;">
				<path id="&lt;Path&gt;" class="s4" d="m779.5 538h-703.4l-78.9 70.1"/>
				<g id="&lt;Group&gt;">
					<path id="&lt;Path&gt;" class="s4" d="m76.5 489v-136.3"/>
					<path id="&lt;Path&gt;" class="s4" d="m76.5 530.1v-26.3"/>
				</g>
			</g>
			<g id="freepik--Plants--inject-120">
				<path id="&lt;Path&gt;" class="s9" d="m737.1 206.4c0 0 0-8.2-11.5-19.7-11.6-11.6-19-18.1-19-18.1 0 0-5.7 18.9 5 30.4 7.8 8.2 16.4 15.6 25.5 22.3z"/>
				<path id="&lt;Path&gt;" class="s9" d="m720.4 257.9c0 0 0-8.2-11.6-19.8-11.5-11.5-18.9-18.1-18.9-18.1 0 0-5.8 18.9 4.9 30.5 7.9 8.1 16.5 15.6 25.6 22.3z"/>
				<path id="&lt;Path&gt;" class="s9" d="m736.4 220.5c0 0 0.9-8.2 13.5-18.5 12.7-10.2 20.8-16 20.8-16 0 0 3.7 19.5-8.1 29.8-8.7 7.2-18 13.7-27.8 19.4z"/>
				<path id="&lt;Path&gt;" class="s9" d="m716.2 281.2c0 0 1.7-8 15.4-16.9 13.7-8.8 22.3-13.7 22.3-13.7 0 0 1.6 19.7-11.2 28.7-9.4 6.3-19.3 11.8-29.6 16.4z"/>
				<path id="&lt;Path&gt;" class="s9" d="m720 347.5c0 0 0-8.3 11.5-19.8 11.5-11.5 18.9-18.1 18.9-18.1 0 0 5.8 18.9-4.9 30.5-7.9 8.1-16.4 15.6-25.5 22.3z"/>
				<path id="&lt;Path&gt;" class="s9" d="m719.8 363.6c0 0 1.1-8.1-8.6-21.2-9.8-13-16.2-20.6-16.2-20.6 0 0-8.4 17.9 0.6 30.9 6.6 9.1 14 17.7 22.1 25.6z"/>
				<path id="&lt;Path&gt;" class="s9" d="m708.4 411.5c0 0 0-8.2 11.5-19.7 11.6-11.5 19-18.1 19-18.1 0 0 5.8 18.9-5 30.4-7.8 8.2-16.4 15.6-25.5 22.3z"/>
				<path id="&lt;Path&gt;" class="s9" d="m716.1 455c0 0-2.1-8 6.2-22.1 8.2-14.1 13.7-22.3 13.7-22.3 0 0 10.4 16.9 3 30.8-5.6 9.8-12 19.2-19.1 27.9z"/>
				<path id="&lt;Path&gt;" class="s10" d="m738.2 204.4q-0.9 12.9-3.2 25.6c-4.6 23.5-16 38.7-20.5 60-4.6 21.2 8.5 48.7 5 76-3.5 27.3-14.1 42.5-11.1 60.8 3 18.2 19 67.6 19 67.6"/>
				<path id="&lt;Path&gt;" class="s10" d="m736.3 226l12.4-9.6"/>
				<path id="&lt;Path&gt;" class="s10" d="m736.8 215l-5.1-9.3"/>
				<path id="&lt;Path&gt;" class="s10" d="m715.2 289c0 0 10.4-7.9 21.1-15.7"/>
				<path id="&lt;Path&gt;" class="s10" d="m720.4 272.7c0 0-8.7-17-18.5-28.3"/>
				<path id="&lt;Path&gt;" class="s10" d="m720.4 359.2c5.9-11 13.4-21 22.3-29.8"/>
				<path id="&lt;Path&gt;" class="s10" d="m718.4 370.7c-3.2-7.4-7-14.6-11.3-21.4-6.1-8.9-7-10.1-7-10.1"/>
				<path id="&lt;Path&gt;" class="s10" d="m708.4 426.7q4-9.8 9.4-19c3.6-5.6 7.6-10.9 12.1-15.9"/>
				<path id="&lt;Path&gt;" class="s10" d="m719.9 469.3c0 0-1.3-9.8 3.1-18.2 4.3-8.4 9.2-19.4 11.3-23.7"/>
				<path id="&lt;Path&gt;" class="s9" d="m661.6 316.5c0 0-0.9-5.2 5.1-13.7 6-8.4 9.9-13.4 9.9-13.4 0 0 5.7 11.2 0.2 19.6-4.1 6-8.6 11.6-13.6 16.8z"/>
				<path id="&lt;Path&gt;" class="s9" d="m677.7 346.9c0 0-0.9-5.1 5.1-13.6 5.9-8.5 9.9-13.4 9.9-13.4 0 0 5.6 11.2 0.2 19.6-4.1 6-8.6 11.5-13.6 16.7z"/>
				<path id="&lt;Path&gt;" class="s9" d="m663.6 325.2c0 0-1.4-5-10.5-10.1-9.1-5-14.8-7.8-14.8-7.8 0 0-0.2 12.6 8.4 17.8 6.2 3.6 12.7 6.7 19.5 9.2z"/>
				<path id="&lt;Path&gt;" class="s9" d="m682.9 361.1c0 0-2-4.9-11.6-8.9-9.5-4.1-15.5-6.2-15.5-6.2 0 0 1.1 12.5 10.2 16.8 6.6 2.9 13.4 5.3 20.4 7.1z"/>
				<path id="&lt;Path&gt;" class="s9" d="m687.7 403.1c0 0-0.9-5.2-9.4-11.2-8.5-6-13.9-9.3-13.9-9.3 0 0-1.5 12.5 6.4 18.6 5.9 4.2 12 7.9 18.5 11.1z"/>
				<path id="&lt;Path&gt;" class="s9" d="m689.5 413.2c0 0-1.6-5 3.1-14.2 4.7-9.3 7.9-14.7 7.9-14.7 0 0 7.2 10.3 3 19.4-3.2 6.4-6.9 12.6-11.1 18.5z"/>
				<path id="&lt;Path&gt;" class="s9" d="m704 454.8c0 0 0.6-5.2 8.7-11.6 8.2-6.5 13.3-10.1 13.3-10.1 0 0 2.3 12.4-5.3 18.9-5.6 4.6-11.5 8.7-17.8 12.2z"/>
				<path id="&lt;Path&gt;" class="s9" d="m701.9 442c0 0-0.9-5.2-9.4-11.2-8.5-5.9-13.9-9.3-13.9-9.3 0 0-1.5 12.6 6.4 18.6 5.9 4.2 12 8 18.5 11.2z"/>
				<path id="&lt;Path&gt;" class="s9" d="m701.7 470.1c0 0 0.5-5.3-6.2-13.2-6.7-7.9-11-12.5-11-12.5 0 0-4.7 11.7 1.5 19.6 4.5 5.5 9.5 10.7 15 15.5z"/>
				<path id="&lt;Path&gt;" class="s10" d="m660.7 315.3q2 8 4.8 15.7c5.4 14.2 14.2 22.5 19.3 35.4 5.2 12.8 0 31.4 5.1 48.2 5.1 16.7 13.5 25.1 13.6 36.9 0.1 11.8-4.6 44.5-4.6 44.5"/>
				<path id="&lt;Path&gt;" class="s10" d="m664.2 328.6l-8.8-4.6"/>
				<path id="&lt;Path&gt;" class="s10" d="m662.7 321.8l2.2-6.4"/>
				<path id="&lt;Path&gt;" class="s10" d="m684.3 365.8c0 0-7.4-3.7-14.9-7.5"/>
				<path id="&lt;Path&gt;" class="s10" d="m679.3 356.3c2.2-6.9 5-13.5 8.5-19.7"/>
				<path id="&lt;Path&gt;" class="s10" d="m688.7 410.4c-4.9-6.2-10.7-11.6-17.2-16.2"/>
				<path id="&lt;Path&gt;" class="s10" d="m691.2 417.5q1.8-7.5 4.7-14.6c2.8-6.3 3.3-7.2 3.3-7.2"/>
				<path id="&lt;Path&gt;" class="s10" d="m703.1 460.4c0 0 5.9-7.2 9.5-9.8q3.3-2.5 6.2-5.4"/>
				<path id="&lt;Path&gt;" class="s10" d="m703.5 451.5q-3.5-5.8-7.9-10.9-4.3-4.7-9.4-8.6"/>
				<path id="&lt;Path&gt;" class="s10" d="m701 479.5c-0.3-4-1.7-7.9-4-11.2-3.6-4.8-7.9-11.1-9.6-13.6"/>
				<path id="&lt;Path&gt;" class="s5" d="m739.4 552.3h-52.6c-2.1 0-3.9-1.8-3.9-3.9l-7.5-58.1h75.4l-7.5 58.1c0 2.1-1.8 3.9-3.9 3.9z"/>
				<path id="&lt;Path&gt;" class="s5" d="m750.1 500.1h-74.7c-3.3 0-5.9-2.6-5.9-5.9 0-3.2 2.6-5.9 5.9-5.9q0 0 0 0h74.7c3.3 0 5.9 2.7 5.9 5.9q0 0 0 0c0 3.3-2.6 5.9-5.9 5.9z"/>
			</g>
		</g>
	</g>
	<g id="Coins">
		<g id="&lt;Group&gt;">
			<g id="&lt;Group&gt;">
				<path id="&lt;Path&gt;" class="s9" d="m581.6 267.6c0 34.5-24 63.4-56.3 70.8 0 0-0.1 0-0.2 0q-2.8 0.7-5.7 1.1-5.1 0.7-10.4 0.7c-40.1 0-72.7-32.5-72.7-72.6 0-39.2 31.1-71.2 70-72.5q1-0.1 2-0.1 0.4 0 0.7 0 0.3 0 0.7 0c10.1 0.1 19.7 2.3 28.5 6.1 25.5 11.2 43.4 36.8 43.4 66.5z"/>
				<path id="&lt;Path&gt;" class="s11" d="m538.2 201.1c-83.9-4.3-84.3 88.8-84.3 88.8 0 0-12.8-30.4 8.1-64.1 11.7-18.8 32-27.1 47.7-30.8 10.1 0.1 19.7 2.3 28.5 6.1z"/>
				<path id="&lt;Path&gt;" class="s4" d="m581.6 267.6c0 34.6-24.1 63.5-56.5 70.8-5.2 1.2-10.6 1.8-16.1 1.8-40.1 0-72.7-32.5-72.7-72.6 0-39.2 31.1-71.2 70-72.5q1.3-0.1 2.7-0.1c40.1 0 72.6 32.5 72.6 72.6z"/>
				<path id="&lt;Path&gt;" class="s4" d="m581.6 267.6c0 34.6-24.1 63.5-56.5 70.8q-1.3 0.1-2.7 0.1c-40.1 0-72.6-32.5-72.6-72.6 0-34.6 24.2-63.5 56.5-70.8q1.3-0.1 2.7-0.1c40.1 0 72.6 32.5 72.6 72.6z"/>
				<g id="&lt;Group&gt;">
					<path id="&lt;Compound Path&gt;" class="s12" d="m534 313.1l1.9 7.7-12.6 3-1.9-7.6c-11.2-0.1-20.2-7.3-23.1-19.1l-0.9-3.4 13.9-5.1 0.9 3.7c1.7 7.1 6.4 10.5 12.3 9.1 5.8-1.5 8.6-6 7.2-11.7-1.7-6.8-9.6-11.1-18.6-15.5-10.8-5.2-21.9-11.8-24.9-24.3-3-12.1 0.8-22.2 10.3-27.2l-1.8-7.7 12.5-3 1.9 7.6c10.9-0.1 19 7.1 22 19.5l0.7 2.5-13.9 5-0.7-2.8c-1.8-7.5-5.7-10.7-10.9-9.4-5.1 1.2-7.3 5.2-5.8 11.3 1.7 6.8 9.7 10.9 18.6 15.5 10.7 5.4 21.9 11.8 24.9 24.2 2.9 11.9-1.9 22.5-12 27.7z"/>
					<path id="&lt;Compound Path&gt;" class="s13" d="m534 313.1l1.9 7.7-12.6 3-1.9-7.6c-11.2-0.1-20.2-7.3-23.1-19.1l-0.9-3.4 13.9-5.1 0.9 3.7c1.7 7.1 6.4 10.5 12.3 9.1 5.8-1.5 8.6-6 7.2-11.7-1.7-6.8-9.6-11.1-18.6-15.5-10.8-5.2-21.9-11.8-24.9-24.3-3-12.1 0.8-22.2 10.3-27.2l-1.8-7.7 12.5-3 1.9 7.6c10.9-0.1 19 7.1 22 19.5l0.7 2.5-13.9 5-0.7-2.8c-1.8-7.5-5.7-10.7-10.9-9.4-5.1 1.2-7.3 5.2-5.8 11.3 1.7 6.8 9.7 10.9 18.6 15.5 10.7 5.4 21.9 11.8 24.9 24.2 2.9 11.9-1.9 22.5-12 27.7z"/>
				</g>
				<path id="&lt;Path&gt;" class="s4" d="m471.9 330.1l15.3-0.7"/>
				<path id="&lt;Path&gt;" class="s4" d="m464.5 325l13.4-1.2"/>
				<path id="&lt;Path&gt;" class="s4" d="m458.5 319.6l13.4-1.2"/>
				<path id="&lt;Path&gt;" class="s4" d="m456.6 217.3h11.5"/>
				<path id="&lt;Path&gt;" class="s4" d="m462.3 212l11.4-0.5"/>
				<path id="&lt;Path&gt;" class="s4" d="m469.5 206.7l12-1.2"/>
				<path id="&lt;Path&gt;" class="s13" d="m525.3 338.4c0 0-0.1 0-0.2 0-5.2 1.2-10.6 1.8-16.1 1.8-40.1 0-72.7-32.5-72.7-72.6 0-39.2 31.1-71.2 70-72.5q1-0.1 2-0.1c-17.7 5.6-47.4 19.9-55.3 49.6-11.3 42.2 14.1 90.2 72.3 93.8z"/>
				<path id="&lt;Path&gt;" class="s14" d="m581.6 267.6c0 34.5-24 63.4-56.3 70.8 0 0-0.1 0-0.2 0q-2.8 0.7-5.7 1.1l18.8-138.4c25.5 11.2 43.4 36.8 43.4 66.5z"/>
			</g>
			<g id="&lt;Group&gt;">
				<path id="&lt;Path&gt;" class="s9" d="m622.8 153.3c-12.1 17.1-34.1 22.9-52.6 15.3-0.1-0.1-0.2-0.1-0.3-0.1q-2-0.9-4.1-2-2.2-1.2-4.2-2.7c-19.8-14-24.5-41.4-10.5-61.2 13.4-19.1 39.3-24.1 58.9-12q0.5 0.3 0.9 0.6 0.7 0.4 1.4 0.9 1 0.7 2 1.5c18.1 14.3 22 40.6 8.5 59.7z"/>
				<path id="&lt;Path&gt;" class="s11" d="m556.5 153.9c0 0-7.2-21.1 2.4-36.7 12-19.5 30.4-28.4 55.4-23.6 0 0-13.6-9.2-36.3-2.7-22.7 6.5-34.9 37.8-21.5 63z"/>
				<path id="&lt;Path&gt;" class="s4" d="m622.8 153.3c-12.1 17.1-34.1 22.9-52.6 15.3q-4.5-1.9-8.6-4.8c-19.8-14-24.6-41.4-10.6-61.2 13.7-19.4 40.3-24.3 59.9-11.4q0.7 0.4 1.4 0.9c19.8 14 24.5 41.4 10.5 61.2z"/>
				<path id="&lt;Path&gt;" class="s4" d="m622.8 153.3c-12.1 17.1-34.1 22.9-52.6 15.3q-0.7-0.5-1.4-0.9c-19.8-14-24.5-41.4-10.5-61.3 12.1-17 34.1-22.9 52.6-15.2q0.7 0.4 1.4 0.9c19.8 14 24.5 41.4 10.5 61.2z"/>
				<g id="&lt;Group&gt;">
					<path id="&lt;Compound Path&gt;" class="s12" d="m583.4 159.2l-1.7 4.4-7.3-2.9 1.7-4.4c-5.5-4-7.4-10.7-4.8-17.5l0.8-2 8.6 2.3-0.8 2.2c-1.6 4.1-0.5 7.4 2.9 8.7 3.4 1.4 6.3 0.1 7.6-3.2 1.6-4-0.8-8.8-3.7-14.2-3.5-6.3-6.7-13.4-3.9-20.6 2.8-7.1 8.2-10.7 14.6-9.9l1.8-4.4 7.3 2.9-1.8 4.4c5.5 3.7 7 10.1 4.1 17.3l-0.5 1.4-8.6-2.3 0.6-1.6c1.7-4.4 0.9-7.3-2.1-8.5-3-1.2-5.4 0-6.8 3.6-1.6 3.9 0.9 8.7 3.8 14.1 3.3 6.4 6.6 13.5 3.8 20.7-2.7 6.9-8.8 10.4-15.6 9.5z"/>
					<path id="&lt;Compound Path&gt;" class="s13" d="m583.4 159.2l-1.7 4.4-7.3-2.9 1.7-4.4c-5.5-4-7.4-10.7-4.8-17.5l0.8-2 8.6 2.3-0.8 2.2c-1.6 4.1-0.5 7.4 2.9 8.7 3.4 1.4 6.3 0.1 7.6-3.2 1.6-4-0.8-8.8-3.7-14.2-3.5-6.3-6.7-13.4-3.9-20.6 2.8-7.1 8.2-10.7 14.6-9.9l1.8-4.4 7.3 2.9-1.8 4.4c5.5 3.7 7 10.1 4.1 17.3l-0.5 1.4-8.6-2.3 0.6-1.6c1.7-4.4 0.9-7.3-2.1-8.5-3-1.2-5.4 0-6.8 3.6-1.6 3.9 0.9 8.7 3.8 14.1 3.3 6.4 6.6 13.5 3.8 20.7-2.7 6.9-8.8 10.4-15.6 9.5z"/>
				</g>
				<path id="&lt;Path&gt;" class="s13" d="m610 90.6c-12.1-2.2-27.2-3.3-35.4 1.9-15.1 9.7-24.5 21.9-24.3 41.6 0.1 19.7 18.5 33.6 18.5 33.6l1.1 0.8c-2.9-1.2-5.7-2.8-8.3-4.7-19.8-14-24.5-41.4-10.5-61.2 13.4-19.1 39.3-24.1 58.9-12z"/>
				<path id="&lt;Path&gt;" class="s14" d="m622.8 153.3c-12.1 17.1-34.1 22.9-52.6 15.3-0.1-0.1-0.2-0.1-0.3-0.1q-2-0.9-4.1-2l48.5-72.9c18.1 14.3 22 40.6 8.5 59.7z"/>
			</g>
		</g>
	</g>
	<g id="Character">
		<g id="&lt;Group&gt;">
			<g id="&lt;Group&gt;">
				<g id="&lt;Group&gt;">
					<path id="&lt;Path&gt;" class="s0" d="m600.2 716.5c-18.8 22.3-40.8 41.7-65.7 56.7q-11.7 7-24 12.5c-56.8 25.6-121.6 27.2-182.2 12.6-127.3-30.9-194.9-143.3-203.4-268.1-2.3-33.7-7.5-70.1 6.2-102.2 13.5-31.8 41.2-52 72.5-65.8 22.7-10.1 47.2-16.9 69.4-22.5 40.5-10 82.6-5.4 120.2 12.4 26.2 12.5 44.8 34 66.8 52.2q3.5 2.9 7.1 5.8c22.2 17.9 45.6 34.3 70 49.2 37 22.6 74.9 43.9 98.6 81.8 37.7 60.4 5.9 126.2-35.5 175.4z"/>
					<path id="&lt;Path&gt;" class="s11" d="m600.2 716.5c-18.8 22.3-40.8 41.7-65.7 56.7q-11.7 7-24 12.5c-56.8 25.6-121.6 27.2-182.2 12.6-127.3-30.9-194.9-143.3-203.4-268.1-2.3-33.7-7.5-70.1 6.2-102.2 13.5-31.8 41.2-52 72.5-65.8 22.7-10.1 47.2-16.9 69.4-22.5 40.5-10 82.6-5.4 120.2 12.4 26.2 12.5 44.8 34 66.8 52.2q3.5 2.9 7.1 5.8c22.2 17.9 45.6 34.3 70 49.2 37 22.6 74.9 43.9 98.6 81.8 37.7 60.4 5.9 126.2-35.5 175.4z"/>
					<path id="&lt;Path&gt;" class="s12" d="m467.1 410.1q-3.6-2.9-7.1-5.8c-22-18.2-40.6-39.7-66.8-52.2-37.6-17.8-79.7-22.4-120.2-12.4-52.9 13.2-118.6 33.4-141.9 88.3-13.7 32.1-8.5 68.5-6.2 102.2 8.5 124.8 76.1 237.2 203.4 268.1 69.3 16.8 144.1 12.2 206.2-25.1 24.9-14.9 46.9-34.5 65.7-56.7 41.4-49.2 73.2-115 35.5-175.4-23.6-37.9-61.5-59.2-98.6-81.8-24.4-14.9-47.8-31.3-70-49.2z"/>
					<path id="&lt;Path&gt;" class="s4" d="m274.1 632.6c-10.5 3.2-21.1 7.3-30.7 12.3"/>
					<path id="&lt;Path&gt;" class="s4" d="m339.1 620.2c0 0-20.8 1.4-46.1 7.3"/>
					<path id="&lt;Path&gt;" class="s4" d="m325.5 617c0 0-59.8-34.8-131.9-6.9"/>
				</g>
				<path id="&lt;Path&gt;" class="s14" d="m600.2 716.5c-18.8 22.3-40.8 41.7-65.7 56.7q-11.7 7-24 12.5c-6.5-2-12.9-4.3-19.2-7-37.3-16-68.6-43-99.2-69.7-18.5-16.1-37.2-32.4-59.3-43-29.5-14.1-64.3-16.9-95.7-7.8 16.2-18.5 39-31 63.3-34.9-15.8-14.3-37.8-20.4-59.2-20.8-21.3-0.4-33.1 2.3-53.9 7 6.9-12.9 25.5-24.5 40.1-24.2-14.6-0.3-31.3-1.3-41.6-2.9-18.8-3-27.3-25.2-30.1-44.1-7.8-52 0.1-107.4 28.5-151.6 5.9-9.3 12.4-17.4 19.4-24.5 22.7-10.1 47.2-16.9 69.4-22.5 40.5-10 82.6-5.4 120.2 12.4 26.2 12.5 44.8 34 66.8 52.2q3.5 2.9 7.1 5.8c22.2 17.9 45.6 34.3 70 49.2 37 22.6 74.9 43.9 98.6 81.8 37.7 60.4 5.9 126.2-35.5 175.4z"/>
			</g>
			<path id="&lt;Path&gt;" class="s3" d="m620.9 715c0 0 16.8 14.2 35.2 25.9 23.7 1.6 13.1 30.4 13.1 30.4l-20.4 13.1c0 0-34.8-27.7-53.7-36.6-19-9 25.8-32.8 25.8-32.8z"/>
			<g id="&lt;Group&gt;">
				<path id="&lt;Path&gt;" class="s13" d="m452 412.4c0 0-3.2-32.3-8.4-41.3l-79-16.2v-6.1c0 0 1.8-10.6-15.8-17.3-17.6-6.6-54.3 2-63.7 9.2-9.5 7.1-6 19.5-6 19.5 0 0-31.8 16.1-46.1 22.2-14.3 6.1-34.2 18-34.2 18 0 0-6.5 74.2-5.2 91.4 1.3 17.2-1 33.4 0.5 42.9 1.4 9.6 2.6 15 12.6 23.1 10 8.1 19.1 20.1 45.3 8.2l-3.6-2.9 172.6-58z"/>
				<path id="&lt;Path&gt;" class="s9" d="m452 412.4c0 0-3.2-32.3-8.4-41.3l-79-16.2v-6.1c0 0 1.8-10.6-15.8-17.3-17.6-6.6-54.3 2-63.7 9.2-9.5 7.1-6 19.5-6 19.5 0 0-31.8 16.1-46.1 22.2-14.3 6.1-34.2 18-34.2 18 0 0-6.5 74.2-5.2 91.4 1.3 17.2-1 33.4 0.5 42.9 1.4 9.6 2.6 15 12.6 23.1 10 8.1 19.1 20.1 45.3 8.2l-3.6-2.9 172.6-58z"/>
				<path id="&lt;Path&gt;" class="s14" d="m452 412.4c0 0-3.2-32.3-8.4-41.3l-79-16.2v-6.1c0 0 1.8-10.6-15.8-17.3-17.6-6.6-54.3 2-63.7 9.2-9.5 7.1-6 19.5-6 19.5 0 0-31.8 16.1-46.1 22.2-14.3 6.1-34.2 18-34.2 18 0 0-6.5 74.2-5.2 91.4 1.3 17.2-1 33.4 0.5 42.9 1.4 9.6 2.6 15 12.6 23.1 10 8.1 19.1 20.1 45.3 8.2l-3.6-2.9 172.6-58z"/>
				<path id="&lt;Path&gt;" class="s14" d="m444.6 375h-33c-6.5 0-11.9 4.6-13 10.9l-16.3 98.1c0 0-22.4 1.9-38.3 13.5-15.8 11.6-54.9-71.1-116.6-71.1 0 0 17.7 40.6 21.7 73 0 0-38.6-4.2-45 10.9-6.4 15.1 2.9 43.4 19.2 32.4 16.3-10.9 31.6-29.3 42.6-17.8 11 11.5 59.6 17.8 59.6 17.8l74.9-37.6 29.1-13.7z"/>
				<path id="&lt;Path&gt;" class="s11" d="m339.7 326.4c0 0 18.8 5.2 21.8 11.5 3 6.3 2.7 22.3 2.7 22.3 0 0-5.1 14.1-20.2 27.7l-14-27.7 1.3 31.4c0 0-26.6-4.4-37.8-12.9-11.3-8.5-11.3-8.5-11.3-8.5 0 0-4.9-15.9-4.2-21.4 0.7-5.4 21-16.4 21-16.4z"/>
				<path id="&lt;Path&gt;" class="s9" d="m652.2 811.8c-0.5-1.1 7.7-15.6 1.2-30.4-6.4-14.8-16.7-9.1-16.7-9.1 0 0-29.2-18.6-41.5-24.5-12.2-5.8-25.5-15.1-25.5-15.1l-12.9 17.5 12 37.1z"/>
				<path id="&lt;Path&gt;" class="s9" d="m635.7 771.4l37.5 22.9c0 0 26.4-16.9 39-28.6 12.6-11.6 40.7-36.5 40.7-36.5l18-24.2c0 0-12.5-15.5-33.3-3.1-26.9 16.1-59.7 39.3-81.5 39 0 0 4.3 26.9-20.4 30.5z"/>
				<path id="&lt;Path&gt;" class="s3" d="m333.3 229.5c0 0 17.1 25.7 20.2 34.1 3.1 8.3 5.6 20.6 4.9 26.6-0.6 5.9-6.8 37.7-10 38.7l-3 3.4 1.9 13.5c0 0-13.3 23-52.5 6.1 0 0-1.5-26.9-6.3-35.3-4.7-8.5-11.9 1.6-19-22.8-7.1-24.4 15.6-49.9 15.6-49.9z"/>
				<path id="&lt;Path&gt;" class="s2" d="m754.7 697.4c0 0-19.3 3.4-25.6 14.8-6.3 11.4-18.3 32.7-22.4 42.9-4.1 10.3-38 35.1-38 35.1l4.5 4.1c0 0 27.6-17 44.3-33.2 16.6-16.3 53.4-57.1 53.4-57.1 0 0-2.7-2.6-16.2-6.6z"/>
				<path id="&lt;Path&gt;" class="s2" d="m561.5 743.7l-4.7 6.5 14.6 30.4 80.8 29 3.7-11.8c0 0 1.3-12-27.1-21.1-28.3-9.1-45.6-15.2-53.7-21.4-8-6.3-13.6-11.6-13.6-11.6z"/>
				<path id="&lt;Path&gt;" class="s3" d="m295 517.7c0 0-24.7-3.8-36.3 16.5-11.5 20.2-10.3 28.9-10.3 28.9 0 0 16.3 14.9 38.8 14.1 22.4-0.7 55.1-26.6 65.8-35 10.7-8.4 37.5-32.4 55.9-27.4l2-17.3c0 0-1.8-7.8-17.5-5.7-15.7 2.1-21.8 11-26.9 11-5 0-9.8-4.8-20 12.5 0 0-35.7 6.3-51.5 2.4z"/>
				<path id="&lt;Path&gt;" class="s4" d="m327.1 266.5q0.8 4.9 2.3 9.6c0.4 1.5 1 3 2.1 4.2 1.8 2.1 4.9 2.5 7.7 2.9 0.4 0.1 0.9 0.2 1.2 0.6 0.3 0.3 0.3 0.7 0.3 1.2 0 3.1-1 6.2-2.7 8.8"/>
				<path id="&lt;Path&gt;" class="s14" d="m578.1 723.1l-16.6 20.6c0 0 18.2 16.9 37.1 23.1 18.8 6.2 51.8 18 57.3 27.1l-2.1-10.9c0 0-51.6-31.6-63.4-39.2-11.9-7.5-12.3-20.7-12.3-20.7z"/>
				<path id="&lt;Path&gt;" class="s14" d="m635.7 771.4l33 18.8c0 0 16.2-11.1 24.3-19.4 8-8.3 17.8-17.4 23.9-35.8 8.4-25.4 32.4-37.6 32.4-37.6 0 0-33.4 15.8-50.8 28.1-17.4 12.3-34.3 17.5-44.1 16.6 0 0 7.9 25-18.7 29.3z"/>
				<path id="&lt;Path&gt;" class="s15" d="m315.5 298.3c0 0 13 10.2 26.4 6.4 0 0-12.7 25.2-26.4-6.4z"/>
				<path id="&lt;Path&gt;" class="s5" d="m315.1 276.3c0.4 2.8-0.5 5.3-1.9 5.5-1.4 0.1-2.9-2-3.2-4.8-0.4-2.8 0.4-5.2 1.8-5.4 1.5-0.2 2.9 1.9 3.3 4.7z"/>
				<path id="&lt;Path&gt;" class="s5" d="m343.3 271.2c0.3 2.9-0.5 5.3-1.9 5.5-1.4 0.2-2.9-2-3.3-4.8-0.3-2.8 0.5-5.2 1.9-5.4 1.4-0.2 2.9 1.9 3.3 4.7z"/>
				<path id="&lt;Path&gt;" class="s4" d="m313 264.5c0 0-7.5-3.9-12.9 4.4"/>
				<path id="&lt;Path&gt;" class="s4" d="m332.4 259.3c0 0 8-6.9 12.6 0"/>
				<path id="&lt;Path&gt;" class="s4" d="m287.3 290.2c0 0-4.8-7.2-9.9-7-5.1 0.3-7.2 7.5-5.4 14.4 1.9 7 9.5 16.7 15.3 15.8 5.8-1 8.4-4.7 8.4-4.7"/>
				<path id="&lt;Path&gt;" class="s4" d="m333.9 235.3c5.5 4.5 11.3 9.4 14.1 16.1 2.5 5.7 3 12 5.2 17.8 2.4 6.1 5 12.5 5.2 19.2 0.2 6.1-1.2 12.5-2.4 18.4-1 5.1-1.9 10.4-3.7 15.4-2.7 7.2-7.7 11.6-14.4 15-4.8 2.5-12.9 6-18.2 2.7-3-2-7.6-7.8-11.5-13"/>
				<path id="&lt;Path&gt;" class="s4" d="m287.3 313.4c0 0 8.6 21.1 6.5 35.9"/>
				<path id="&lt;Path&gt;" class="s5" d="m285.1 286.7c2.3-1.7 3.6-4.6 3.3-7.5-0.3-3.2-2.5-6.2-2.1-9.4 0.2-1.6 1.1-3 1.7-4.5 2.4-5.3 2-11.8-1-16.8 0 0 27.3 1.3 40.1-6.9 12.8-8.1 22.6-28.9 14.8-38.9-7.7-9.9-22.8 3.6-33.9 5.1-11.2 1.5-51 7.9-57.3 23.3-6.4 15.3 3.3 20.8 3.6 35.4 0.3 14.6 0.3 42.3 22.1 39.8 0 0-8.1-10.6-2.5-21.5 3.9-4.6 11.2 1.9 11.2 1.9z"/>
				<path id="&lt;Path&gt;" class="s5" d="m338.7 220c0 0 11.2 7.5 13.1 24 1.2 11 20.6 32.3 6.6 44.4 0 0-3.2-12.9-5.2-19.2-1.9-6.4-4.3-18-7.6-22.1-3.2-4-20.3-17.9-20.3-17.9z"/>
				<path id="&lt;Path&gt;" class="s4" d="m289.8 348.8c0 0 13.5 8.9 38.6 9.3l2.9 33.5c0 0-28.2-2.1-49.1-21.4 0 0-5.7-14.9-4.2-21.4 1.5-6.4 14.9-12.8 14.9-12.8"/>
				<path id="&lt;Path&gt;" class="s4" d="m346.5 333.8l0.8 12c-9.1 9.3-18.9 12.3-18.9 12.3l15.6 29.8c0 0 18.7-14.5 20.6-29.8 0 0 0.2-15.7-3.1-20.2-3.2-4.5-15.1-6.6-15.1-6.6"/>
				<path id="&lt;Path&gt;" class="s16" d="m270.6 241c2-5 7.5-7.9 12.8-8.8 5.4-0.9 10.8-0.3 16.2-0.4 7.5-0.2 15-2 21.2-6 6.3-3.9 11.3-10.2 12.8-17.5"/>
				<path id="&lt;Path&gt;" class="s16" d="m257.7 240c3.4-10.2 14.3-16.6 25.1-17.5 5.4-0.4 10.8 0.2 16.1-0.4 5.3-0.7 10.8-2.9 13.6-7.4"/>
				<path id="&lt;Path&gt;" class="s4" d="m252 566c-25.9 13.5-35.2-0.4-49.7-11.8-14.5-11.5-5-32-8-64.9-3-33 4.5-88.9 4.5-88.9 0 0 6.5-1.5 24.5-12.5 17.9-11 55.8-27.7 55.8-27.7"/>
				<path id="&lt;Path&gt;" class="s4" d="m277.8 516.2c0 0-4.1-13-15.8-13.4-11.6-0.3-30 4.9-43.1 29.7"/>
				<path id="&lt;Path&gt;" class="s4" d="m259.4 502.1c-0.8 0-1.5-0.3-2.1-0.5-9.6-3.5-20.1-4-29.9-1.4"/>
				<path id="&lt;Path&gt;" class="s4" d="m220.7 418.3c21.2 23.4 31.5 54.3 41.3 84.3"/>
				<path id="&lt;Path&gt;" class="s4" d="m364.6 354.9c0 0 38.4 9.2 57.2 11.4 18.7 2.2 21.8 4.8 21.8 4.8l3.5 13.1"/>
				<path id="&lt;Path&gt;" class="s3" d="m543.6 377.8l-130.8 5-10.7 134.5h22.4l113.5-25.4 14.3-110.9z"/>
				<g id="&lt;Group&gt;">
					<path id="&lt;Path&gt;" class="s9" d="m408.9 521.3l143-137.1-13.9 107.7z"/>
					<path id="&lt;Path&gt;" class="s1" d="m408.9 521.3l143-137.1-13.9 107.7z"/>
				</g>
				<path id="&lt;Path&gt;" class="s4" d="m408.9 517.7l11.4-129.8 132-6.9-14.3 110.9z"/>
				<path id="&lt;Path&gt;" class="s5" d="m496.7 443.8c-0.9 7.9-5.1 13.9-9.4 13.5-4.4-0.5-7.1-7.3-6.2-15.2 0.9-7.9 5.1-13.9 9.4-13.5 4.3 0.5 7.1 7.3 6.2 15.2z"/>
				<path id="&lt;Path&gt;" class="s5" d="m538 491.9c0 0 60.5-1.8 79.4 10.7 18.9 12.5 30 75.1 27.4 108.3-2.6 33.3-25.5 109.5-25.5 109.5l-43.6-49.5c0 0-21.6-78.2-9.8-108.9 0 0-58 3.3-80.9-3.9 0 0-20.4-33.5-55.5-44.6z"/>
				<path id="&lt;Path&gt;" class="s12" d="m628.6 721.7c-18.5-16.7-36.3-39.7-41.6-47.9-21.1-32.6-50.4-64.1-80.4-88.4-24.2-19.7-29.7-51.7-59.6-67.7-49.5-26.6-92.3 26.2-108.3 36.8-16 10.7-43.7 22.7-43.7 22.7 0 0 10.1 38 39.8 42.5 29.7 4.6 59.8-16 74.1-6.1 14.3 9.9 24.7 54.1 71.7 80.1 38.4 21.1 90.7 41.8 117.7 55.7 6 3.1 10.4 6.4 13.8 8.2 9.4 5.1 19.3 11.1 28.7 17l32.4 19.7c0 0 32.5-19.2 45-36.9 1.6-2.4 5.1-8.7 8.3-14.8 7.1-13.4 16-25.4 28.4-32.1 8.6-4.6 16.2-6 16-6.5-0.9-1.5-16.4-9.4-26.9-5.1-22.3 9.2-67 44.7-87.9 42 0 0-15.3-8.1-27.5-19.2z"/>
				<path id="&lt;Path&gt;" class="s5" d="m628.6 721.7c-19.5 7.9-27.3 20-30.3 27.7-27-13.9-79.3-34.6-117.7-55.7-47-26-57.4-70.2-71.7-80.1-14.3-9.9-44.4 10.7-74.1 6.1-29.7-4.5-39.8-42.5-39.8-42.5 0 0 27.7-12 43.7-22.7 16-10.6 52.9-63.4 108.3-36.8 30.6 14.6 35.4 48 59.6 67.7 30 24.3 59.3 55.8 80.4 88.4 5.3 8.2 23 31.3 41.6 47.9z"/>
				<path id="&lt;Path&gt;" class="s17" d="m482.3 552.2c0 0-15-30.5-39-36.4"/>
				<path id="&lt;Path&gt;" class="s4" d="m403.8 491.6c-16.5-3.6-34.7 14.6-42.3 11.2-5.7-2.5-15 12.5-15 12.5 0 0-24.2 3.8-46.5 2.4-22.2-1.5-32.8 2.9-40.6 14.8l-11 29.1c0 0 29 26 60 10.9 31-15.2 72.1-60.8 100.5-60.7"/>
				<path id="&lt;Path&gt;" class="s12" d="m634.4 770.6c0 0 27.1 2.3 20.8-30.1"/>
				<path id="&lt;Path&gt;" class="s5" d="m762.2 720.4c-2 4.1-26.8 25.2-48.3 43.7 0.1-0.3 6-11.6 8.5-16.4 5.7-10.6 20.4-39.8 48.5-43.7 3.9 2.4-8.7 16.4-8.7 16.4z"/>
				<path id="&lt;Path&gt;" class="s12" d="m751.6 697.7c-28.4 5.6-34.8 41.9-44.9 57.4-10 15.5-38 36.5-38 36.5"/>
				<path id="&lt;Path&gt;" class="s12" d="m653.4 782.3c4.7 8.5 2.5 18.3 0 24.4-2 5.2-4.4 8.7-4.4 8.7-40.1-6.6-80.2-28.1-80.2-28.1l-10.4-32-1.6-5.1 15.5-21"/>
				<path id="&lt;Path&gt;" class="s5" d="m653.4 806.7c-2 5.2-4.4 8.7-4.4 8.7-40.1-6.6-80.2-28.1-80.2-28.1l-10.4-32c5.2 6.7 14.8 16.6 29.2 20.7 19.5 5.5 55.6 12 65.8 30.7z"/>
				<path id="&lt;Path&gt;" class="s4" d="m402.1 512.6l10.7-129.8 130.8-5 8.7 3.2"/>
				<path id="&lt;Path&gt;" class="s12" d="m654.9 755.1c0 0 17.9 3.2 31.6-8 13.7-11.2 35.9-36.5 35.9-36.5"/>
				<path id="&lt;Path&gt;" class="s4" d="m673.2 739c0 0-4.3 6.5 0 19.5"/>
				<path id="&lt;Path&gt;" class="s4" d="m685.9 732.8c0 0-3.5 9.7 1.6 19.5"/>
				<path id="&lt;Path&gt;" class="s4" d="m701 724c0 0-3.6 10.9 0 20.5"/>
				<path id="&lt;Path&gt;" class="s12" d="m575.9 726.5l-14.4 17.2c0 0 14.5 15.8 34.9 22.4 20.3 6.5 56.7 17.7 59.8 29.5"/>
			</g>
		</g>
	</g>
</svg>